<?xml version="1.0" standalone="no"?>
<!DOCTYPE svg PUBLIC "-//W3C//DTD SVG 20010904//EN"
 "http://www.w3.org/TR/2001/REC-SVG-20010904/DTD/svg10.dtd">
<svg version="1.0" xmlns="http://www.w3.org/2000/svg"
 width="1280.000000pt" height="840.000000pt" viewBox="0 0 1280.000000 840.000000"
 preserveAspectRatio="xMidYMid meet">
<g transform="translate(0.000000,840.000000) scale(0.100000,-0.100000)"
fill="#000000" stroke="none">
<path d="M7370 8384 c-25 -7 -81 -13 -125 -13 -136 -2 -262 -46 -285 -100 -26
-65 37 -159 274 -408 95 -100 98 -104 106 -163 9 -67 -2 -171 -24 -225 -39
-94 -69 -114 -361 -243 -889 -394 -1612 -812 -2070 -1193 -306 -256 -536 -509
-739 -814 -122 -184 -166 -260 -405 -703 -297 -549 -453 -804 -681 -1107 -221
-294 -537 -647 -807 -900 -124 -117 -161 -147 -207 -164 -84 -31 -174 -36
-300 -16 -145 22 -262 57 -598 176 -155 55 -325 112 -377 126 -127 33 -273 41
-361 19 -166 -42 -310 -126 -372 -216 -42 -62 -45 -76 -20 -106 33 -40 68 -53
216 -84 266 -55 529 -159 591 -232 28 -33 30 -57 13 -121 -16 -61 1 -90 91
-151 102 -70 121 -101 131 -218 4 -51 4 -223 -1 -383 -13 -467 -11 -826 6
-937 14 -94 43 -175 70 -198 30 -25 150 85 273 246 277 367 760 1240 823 1487
7 29 20 54 33 62 11 7 97 25 189 40 205 32 358 69 537 128 661 220 1406 701
2163 1398 98 90 202 184 230 208 51 43 52 43 55 20 6 -40 22 -52 67 -47 105
12 429 182 568 298 83 70 109 83 397 201 583 238 1289 399 1826 416 209 7 251
0 198 -32 -135 -83 -196 -137 -323 -290 -111 -135 -151 -165 -263 -204 -153
-54 -268 -123 -268 -161 0 -13 120 -30 206 -30 84 0 364 23 501 40 69 9 116
25 300 106 409 179 642 310 777 438 51 49 74 64 90 61 12 -3 123 -27 248 -55
256 -56 531 -123 568 -139 20 -8 12 -9 -36 -5 l-60 6 -77 -62 c-212 -170 -267
-319 -137 -368 170 -64 748 57 1095 230 l80 40 96 -6 c52 -3 116 -12 142 -20
25 -7 142 -76 259 -153 247 -162 303 -196 416 -252 294 -147 499 -148 635 -2
52 56 52 51 -3 201 -79 215 -192 389 -385 590 l-72 75 -7 130 c-14 265 -56
495 -117 641 -17 41 -56 116 -87 167 -30 50 -83 147 -117 214 -353 692 -1061
1284 -1875 1567 -326 114 -638 171 -1080 197 -361 22 -356 21 -385 49 -15 14
-77 95 -138 180 -146 206 -253 335 -374 451 -178 171 -325 258 -508 304 -109
27 -157 29 -225 9z"/>
</g>
</svg>
